<svg width="17" height="16" viewBox="0 0 17 16" fill="none" xmlns="http://www.w3.org/2000/svg">
<path d="M5.26672 14.0667C5.10006 13.9 5.01672 13.7027 5.01672 13.4747C5.01672 13.2467 5.10006 13.0496 5.26672 12.8834L10.1501 8.00002L5.25006 3.10002C5.0945 2.94447 5.01672 2.75002 5.01672 2.51669C5.01672 2.28335 5.10006 2.08335 5.26672 1.91669C5.43339 1.75002 5.63072 1.66669 5.85872 1.66669C6.08672 1.66669 6.28384 1.75002 6.45006 1.91669L12.0501 7.53335C12.1167 7.60002 12.1641 7.67224 12.1921 7.75002C12.2201 7.8278 12.2338 7.91113 12.2334 8.00002C12.2334 8.08891 12.2194 8.17224 12.1914 8.25002C12.1634 8.3278 12.1163 8.40002 12.0501 8.46669L6.43339 14.0834C6.27783 14.2389 6.08606 14.3167 5.85806 14.3167C5.63006 14.3167 5.43295 14.2334 5.26672 14.0667Z" fill="#F0F6FC"/>
</svg>
